{"title":"7500.2014.1080p.BluRay.H264.AAC.5.1.MP4.Raven","uid":10976041,"size":1215406308,"categoryP":"video","categoryS":"hd___movies","magnet":"?xt=urn:btih:b4300252afbc191961653bb385fd2482b1d1ee3b&amp;dn=7500.2014.1080p.BluRay.H264.AAC.5.1.MP4.Raven&amp;tr=udp%3A%2F%2Ftracker.openbittorrent.com%3A80&amp;tr=udp%3A%2F%2Fopen.demonii.com%3A1337&amp;tr=udp%3A%2F%2Ftracker.coppersurfer.tk%3A6969&amp;tr=udp%3A%2F%2Fexodus.desync.com%3A6969","seeders":1,"leechers":0,"uploader":"Raven1969","files":-1,"time":1409790687,"description":"7500.2014.1080p.BluRay.H264.AAC.5.1.MP4.Raven.\n\n\n\n\n\nScreen images:\n\n\n\n\n &lt;a href=&quot;\nhttp://i.imgur.com/J4LgqI9.png&quot; rel=&quot;nofollow&quot; target=&quot;_NEW&quot;&gt;\nhttp://i.imgur.com/J4LgqI9.png&lt;/a&gt;\n\n\n\n\n &lt;a href=&quot;\nhttp://i.imgur.com/mf8oTC1.png&quot; rel=&quot;nofollow&quot; target=&quot;_NEW&quot;&gt;\nhttp://i.imgur.com/mf8oTC1.png&lt;/a&gt;\n\n\n\n\n &lt;a href=&quot;\nhttp://i.imgur.com/LvNxPL3.png&quot; rel=&quot;nofollow&quot; target=&quot;_NEW&quot;&gt;\nhttp://i.imgur.com/LvNxPL3.png&lt;/a&gt;\n\n\n\n\n &lt;a href=&quot;\nhttp://i.imgur.com/Wzhm4D7.png&quot; rel=&quot;nofollow&quot; target=&quot;_NEW&quot;&gt;\nhttp://i.imgur.com/Wzhm4D7.png&lt;/a&gt;\n\n\n\n\n\n\nIMDB:\n\n\n\n &lt;a href=&quot;\nhttp://www.imdb.com/title/tt1975159&quot; rel=&quot;nofollow&quot; target=&quot;_NEW&quot;&gt;\nhttp://www.imdb.com/title/tt1975159&lt;/a&gt;\n\n\n\n\nIMDB Rating 6.0\n\n\n\n\nStoryline:\n\nFlight 7500 departs Los Angeles International Airport bound for Tokyo. As the overnight flight makes its way over the Pacific Ocean during its ten-hour course, the passengers encounter what appears to be a supernatural force in the cabin.\n\nOn May 12th, Vista Pacific Flight 7500 departs Los Angeles International Airport bound for Tokyo. The take-off is routine but what transpires over the next ten hours is anything but ordinary. As the overnight flight makes its way over the Pacific Ocean, the passengers encounter what appears to be a supernatural force in the cabin.\n\n\n\n\n\n\nGeneral\n\n\n\n\nFormat                                   : MPEG-4\nFormat profile                           : Base Media\nCodec ID                                 : isom\nFile size                                : 1.13 GiB\nDuration                                 : 1h 19mn\nOverall bit rate mode                    : Variable\nOverall bit rate                         : 2 030 Kbps\nMaximum bit rate                         : 15.1 Mbps\nMovie name                               : 7500\nGenre                                    : Action &amp; Horror &amp; Mystery &amp; Suspense\nDescription                              : Flight 7500 departs Los Angeles International Airport bound for Tokyo. As the overnight flight makes its way over the Pacific Ocean during its ten-hour course, the passengers encounter what appears to be a supernatural force in the cabin.\nRecorded date                            : 2014-05-16\nCopyright                                : F**k the MPAA\nTitle/Sort                               : 7500\nContentRating                            : mpaa|PG-13|\n\n\n\n\n\n\n\n\nVideo\n\n\n\n\nFormat                                   : AVC\nFormat/Info                              : Advanced Video Codec\nFormat profile                           : &lt;a class=&quot;__cf_email__&quot; href=&quot;/cdn-cgi/l/email-protection&quot; data-cfemail=&quot;bdf0dcd4d3fdf189938d&quot;&gt;[email&amp;#160;protected]&lt;/a&gt;&lt;script cf-hash='f9e31' type=&quot;text/javascript&quot;&gt;\n/* &lt;![CDATA[ */!function(){try{var t=&quot;currentScript&quot;in document?document.currentScript:function(){for(var t=document.getElementsByTagName(&quot;script&quot;),e=t.length;e--;)if(t[e].getAttribute(&quot;cf-hash&quot;))return t[e]}();if(t&amp;&amp;t.previousSibling){var e,r,n,i,c=t.previousSibling,a=c.getAttribute(&quot;data-cfemail&quot;);if(a){for(e=&quot;&quot;,r=parseInt(a.substr(0,2),16),n=2;a.length-n;n+=2)i=parseInt(a.substr(n,2),16)^r,e+=String.fromCharCode(i);e=document.createTextNode(e),c.parentNode.replaceChild(e,c)}}}catch(u){}}();/* ]]&gt; */&lt;/script&gt;\nFormat settings, CABAC                   : Yes\nCodec ID                                 : avc1\nCodec ID/Info                            : Advanced Video Coding\nDuration                                 : 1h 19mn\nBit rate                                 : 1 834 Kbps\nMaximum bit rate                         : 15.1 Mbps\nWidth                                    : 1 920 pixels\nHeight                                   : 1 036 pixels\nDisplay aspect ratio                     : 1.85:1\nFrame rate mode                          : Constant\nFrame rate                               : 23.976 fps\nBit depth                                : 8 bits\nScan type                                : Progressive\nBits/(Pixel*Frame)                       : 0.038\nStream size                              : 1.02 GiB (90%)\nWriting library                          : x264 \n\n\n\n\n\n\n\nAudio\n\n\n\n\nFormat                                   : AAC\nFormat/Info                              : Advanced Audio Codec\nDuration                                 : 1h 19mn\nBit rate mode                            : Variable\nBit rate                                 : 192 Kbps\nMaximum bit rate                         : 312 Kbps\nOriginal Channel count                   : 6 channels\nChannel positions                        : Front: L C R, Side: L R, LFE\nSampling rate                            : 48.0 KHz\nCompression mode                         : Lossy\nStream size                              : 110 MiB (9%)\nLanguage                                 : English\n\n\n\n\nPLEASE COMMENT ON QUALITY AND SEED FOR AS LONG AS POSSIBLE TO KEEP THE TORRENT ALIVE :-","torrent":{"xt":"urn:btih:b4300252afbc191961653bb385fd2482b1d1ee3b","amp;dn":"7500.2014.1080p.BluRay.H264.AAC.5.1.MP4.Raven","amp;tr":["udp%3A%2F%2Ftracker.openbittorrent.com%3A80","udp%3A%2F%2Fopen.demonii.com%3A1337","udp%3A%2F%2Ftracker.coppersurfer.tk%3A6969","udp%3A%2F%2Fexodus.desync.com%3A6969"],"infoHash":"b4300252afbc191961653bb385fd2482b1d1ee3b","infoHashBuffer":{"type":"Buffer","data":[180,48,2,82,175,188,25,25,97,101,59,179,133,253,36,130,177,209,238,59]},"announce":[],"urlList":[]}}